<svg xmlns="http://www.w3.org/2000/svg" viewBox="0 0 600 760" width="600" height="760">
  <defs>
    <linearGradient id="suit" x1="0" y1="0" x2="0" y2="1"><stop offset="0" stop-color="#2b3350"/><stop offset="1" stop-color="#171c2e"/></linearGradient>
    <linearGradient id="skin" x1="0" y1="0" x2="0" y2="1"><stop offset="0" stop-color="#f1c7a6"/><stop offset="1" stop-color="#dca583"/></linearGradient>
    <linearGradient id="hair" x1="0" y1="0" x2="1" y2="1"><stop offset="0" stop-color="#5a3a24"/><stop offset="1" stop-color="#2e1d12"/></linearGradient>
  </defs>
  <path d="M60 760 C70 600 140 540 230 515 L370 515 C460 540 530 600 540 760 Z" fill="url(#suit)"/>
  <path d="M245 515 L300 640 L355 515 Z" fill="#f4f4f2"/>
  <path d="M230 515 L300 650 L262 760 L200 760 L190 560 Z" fill="#232a44"/>
  <path d="M370 515 L300 650 L338 760 L400 760 L410 560 Z" fill="#232a44"/>
  <rect x="262" y="420" width="76" height="110" rx="30" fill="url(#skin)"/>
  <path d="M262 470 Q300 500 338 470 L338 500 Q300 525 262 500 Z" fill="#c98f6c" opacity="0.6"/>
  <ellipse cx="300" cy="320" rx="112" ry="135" fill="url(#skin)"/>
  <ellipse cx="190" cy="330" rx="18" ry="30" fill="#e2ad8b"/>
  <ellipse cx="410" cy="330" rx="18" ry="30" fill="#e2ad8b"/>
  <path d="M186 310 C170 175 245 140 305 142 C385 140 440 195 414 310 C408 262 388 232 345 226 C305 244 240 240 214 230 C198 252 192 280 186 310 Z" fill="url(#hair)"/>
  <g fill="none" stroke="#1b1b1f" stroke-width="7">
    <rect x="218" y="300" width="72" height="54" rx="16"/>
    <rect x="310" y="300" width="72" height="54" rx="16"/>
    <path d="M290 322 Q300 314 310 322"/>
  </g>
  <circle cx="254" cy="328" r="7" fill="#2b2b30"/>
  <circle cx="346" cy="328" r="7" fill="#2b2b30"/>
  <path d="M300 340 Q292 372 302 380" fill="none" stroke="#c98f6c" stroke-width="5" stroke-linecap="round"/>
  <path d="M262 410 Q300 440 338 410" fill="none" stroke="#9c4f3e" stroke-width="7" stroke-linecap="round"/>
</svg>
